<?xml version="1.0" ?><svg enable-background="new 0 0 64 64" height="64px" id="Layer_1" version="1.1" viewBox="0 0 64 64" width="64px" xml:space="preserve" xmlns="http://www.w3.org/2000/svg" xmlns:xlink="http://www.w3.org/1999/xlink"><circle cx="32" cy="32" fill="#E0995E" r="32"/><g opacity="0.2"><path d="M50,28h-2v12h2c1.105,0,2-0.895,2-2v-8C52,28.895,51.105,28,50,28z" fill="#231F20"/><g><path d="M48,25c0-1.105-0.895-2-2-2H14c-1.105,0-2,0.895-2,2v5v8v5c0,1.105,0.895,2,2,2h32c1.105,0,2-0.895,2-2v-3    V28V25z M45,42H15V26h30V42z" fill="#231F20"/></g><rect fill="#231F20" height="12" width="26" x="17" y="28"/></g><g><path d="M50,26h-2v12h2c1.105,0,2-0.895,2-2v-8C52,26.895,51.105,26,50,26z" fill="#4F5D73"/><g><rect fill="#FFFFFF" height="16" width="30" x="15" y="24"/><g><path d="M46,21H14c-1.105,0-2,0.895-2,2v5v8v5c0,1.105,0.895,2,2,2h32c1.105,0,2-0.895,2-2v-3V26v-3     C48,21.895,47.105,21,46,21z M45,40H15V24h30V40z" fill="#4F5D73"/></g></g><rect fill="#C75C5C" height="12" width="11" x="17" y="26"/></g></svg>